Patient4_TMGait_0pt8_01_right_11_GRF.mot
version=1
nRows=78
nColumns=19
inDegrees=no
endheader
time	F1x	F1y	F1z	M1x	M1y	M1z	F2x	F2y	F2z	M2x	M2y	M2z	EC1x	EC1y	EC1z	EC2x	EC2y	EC2z
12.12	-0.4885	745.1531	78.67	-269.4004	-81.6534	821.7419	-4.1218	7.7271	4.6653	0.51628	-3.3071	1.346	-0.0592	0.0182	-0.0073	-0.0462	0.0165	0.9585
12.1311	-3.1319	734.8187	77.2583	-264.7117	-80.96	805.1217	-2.8883	6.1962	3.1173	0.68907	-2.0877	2.1457	-0.0592	0.0182	-0.0073	-0.0462	0.0165	0.9585
12.1421	-4.9405	722.8196	75.7198	-259.536	-79.7106	786.4773	-1.8624	4.9247	1.7758	0.86209	-1.0287	2.8223	-0.0592	0.0182	-0.0073	-0.0462	0.0165	0.9585
12.1532	-5.7843	710.1693	74.0579	-254.3081	-77.8827	767.0971	-1.1154	4.0033	0.73698	1.0223	-0.20112	3.3856	-0.0592	0.0182	-0.0073	-0.0462	0.0165	0.9585
12.1643	-5.7043	697.9777	72.2687	-249.4584	-75.5212	748.2354	-0.62136	3.4455	0.0088138	1.1667	0.38873	3.8705	-0.0592	0.0182	-0.0073	-0.0462	0.0165	0.9585
12.1754	-4.798	687.2797	70.3113	-245.3567	-72.6603	731	-0.36224	3.1843	-0.45928	1.2889	0.79043	4.2766	-0.0592	0.0182	-0.0073	-0.0462	0.0165	0.9585
12.1864	-3.1573	678.9578	68.1818	-242.294	-69.3632	716.2676	-0.27667	3.1216	-0.71887	1.3802	1.0396	4.5886	-0.0592	0.0182	-0.0073	-0.0462	0.0165	0.9585
12.1975	-0.84484	673.6257	65.8948	-240.4538	-65.6872	704.6323	-0.31826	3.1204	-0.84309	1.4185	1.1915	4.7487	-0.0592	0.0182	-0.0073	-0.0462	0.0165	0.9585
12.2086	2.1336	671.6378	63.5313	-239.9066	-61.7253	696.4087	-0.44651	3.0323	-0.88788	1.3756	1.2909	4.6494	-0.0592	0.0182	-0.0073	-0.0462	0.0165	0.9585
12.2196	5.7743	673.0203	61.1999	-240.5987	-57.5794	691.5719	-0.61386	2.7133	-0.91706	1.2185	1.3894	4.1748	-0.0592	0.0182	-0.0073	-0.0462	0.0165	0.9585
12.2307	10.0679	677.5705	59.0465	-242.3862	-53.3821	689.8947	-0.79447	2.0064	-0.96125	0.90564	1.5064	3.1684	-0.0592	0.0182	-0.0073	-0.0462	0.0165	0.9585
12.2418	15.0015	684.8759	57.2195	-245.06	-49.2676	690.9362	-0.95628	0.78858	-1.0528	0.39832	1.658	1.5061	-0.0592	0.0182	-0.0073	-0.0462	0.0165	0.9585
12.2529	20.5155	694.4327	55.838	-248.3827	-45.3546	694.196	-1.0498	-1.0344	-1.1789	-0.33335	1.8128	-0.90519	-0.0592	0.0182	-0.0073	-0.0462	0.0165	0.9585
12.2639	26.5772	705.6486	55.0259	-252.0977	-41.7623	699.081	-1.017	-3.4769	-1.3134	-1.292	1.9223	-4.0752	-0.0592	0.0182	-0.0073	-0.0462	0.0165	0.9585
12.275	33.0697	717.9295	54.8456	-255.9655	-38.5762	705.0112	-0.77589	-6.3851	-1.4017	-2.4193	1.8918	-7.8008	-0.0592	0.0182	-0.0073	-0.0462	0.0165	0.9585
12.2861	39.8825	730.7094	55.3211	-259.7828	-35.8551	711.422	-0.2316	-9.3925	-1.3532	-3.572	1.5799	-11.6135	-0.0592	0.0182	-0.0073	-0.0462	0.0165	0.9585
12.2971	46.7997	743.4513	56.3886	-263.3864	-33.6178	717.8253	0.71042	-11.7841	-1.0654	-4.4705	0.822	-14.6291	-0.0592	0.0182	-0.0073	-0.0462	0.0165	0.9585
12.3082	53.5982	755.6236	57.909	-266.6487	-31.8283	723.7279	2.1259	-12.4162	-0.39506	-4.6641	-0.58333	-15.4293	-0.0592	0.0182	-0.0073	-0.0462	0.0165	0.9585
12.3193	60.0261	766.6454	59.6664	-269.4442	-30.3917	728.6446	4.0349	-9.6279	0.80065	-3.502	-2.8202	-11.9502	-0.0592	0.0182	-0.0073	-0.0462	0.0165	0.9585
12.3304	65.9428	775.7868	61.434	-271.5977	-29.1778	731.9032	6.3662	-1.208	2.6752	-0.12162	-6.0349	-1.4664	-0.0592	0.0182	-0.0073	-0.0462	0.0165	0.9585
12.3414	71.2964	782.112	63.0129	-272.8416	-28.0427	732.6798	8.8562	15.4501	5.3057	6.4911	-10.2067	19.2502	-0.0592	0.0182	-0.0073	-0.0462	0.0165	0.9585
12.3525	76.1635	784.3971	64.2597	-272.7899	-26.8459	729.8364	11	43.0544	8.6543	17.3809	-15.0604	53.5507	-0.0592	0.0182	-0.0073	-0.0462	0.0165	0.9585
12.3636	80.5931	781.2418	65.0576	-270.9734	-25.4683	722.1185	11.9204	83.7308	12.4473	33.3576	-19.8848	104.0856	-0.0592	0.0182	-0.0073	-0.0462	0.0165	0.9585
12.3746	84.5982	771.2102	65.2633	-266.8981	-23.7861	708.2689	10.3387	138.0525	16.0637	54.6065	-23.3803	171.5776	-0.0592	0.0182	-0.0073	-0.0462	0.0165	0.9585
12.3857	87.9885	752.9333	64.6308	-260.0916	-21.6586	687.1665	4.6867	203.773	18.4585	80.1957	-23.6638	253.2524	-0.0592	0.0182	-0.0073	-0.0462	0.0165	0.9585
12.3968	90.4383	725.1836	62.8727	-250.1343	-18.9696	657.8624	-5.8531	274.8503	18.3798	107.686	-18.8737	341.6278	-0.0592	0.0182	-0.0073	-0.0462	0.0165	0.9585
12.4079	91.504	687.0606	59.7435	-236.7198	-15.6883	619.7318	-19.6677	341.8271	14.1569	133.3201	-7.7527	424.9037	-0.0592	0.0182	-0.0073	-0.0462	0.0165	0.9585
12.4189	90.733	638.3621	55.2101	-219.7713	-11.9737	572.742	-33.4302	396.8518	5.4428	154.0336	8.6153	493.0607	-0.0592	0.0182	-0.0073	-0.0462	0.0165	0.9585
12.43	87.7359	580.0079	49.4589	-199.574	-8.1324	517.8502	-45.0392	437.8744	-5.8273	169.0821	27.1087	543.2141	-0.0592	0.0182	-0.0073	-0.0462	0.0165	0.9585
12.4411	82.3457	513.8616	42.9193	-176.7375	-4.5872	456.7779	-53.5111	467.7886	-18.5038	179.6473	45.8463	578.7371	-0.0592	0.0182	-0.0073	-0.0462	0.0165	0.9585
12.4521	74.6435	442.7103	36.053	-152.1898	-1.6907	392.0165	-58.9566	491.7871	-30.4211	187.8486	62.3548	606.0728	-0.0592	0.0182	-0.0073	-0.0462	0.0165	0.9585
12.4632	64.9853	369.8706	29.2252	-127.0651	0.38863	326.4531	-61.7562	514.4513	-40.4504	195.5463	75.4329	630.9551	-0.0592	0.0182	-0.0073	-0.0462	0.0165	0.9585
12.4743	54.0399	298.8428	22.7807	-102.5706	1.615	263.0781	-62.7126	538.7234	-47.9975	203.9183	84.6743	657.1674	-0.0592	0.0182	-0.0073	-0.0462	0.0165	0.9585
12.4854	42.6851	232.8199	16.976	-79.8142	2.1205	204.576	-62.2444	565.6097	-53.0539	213.3657	90.3201	685.95	-0.0592	0.0182	-0.0073	-0.0462	0.0165	0.9585
12.4964	31.8591	174.1993	12.0671	-59.6267	2.0591	152.8854	-60.921	595.0717	-56.667	223.8002	93.749	717.4286	-0.0592	0.0182	-0.0073	-0.0462	0.0165	0.9585
12.5075	22.2395	124.4212	8.1214	-42.5057	1.6549	109.1503	-58.8459	626.1811	-59.3279	234.8303	95.7128	750.4663	-0.0592	0.0182	-0.0073	-0.0462	0.0165	0.9585
12.5186	14.2196	83.9032	5.1244	-28.5961	1.0812	73.625	-56.4362	657.4477	-62.0181	245.8232	97.4553	783.4687	-0.0592	0.0182	-0.0073	-0.0462	0.0165	0.9585
12.5296	7.8625	52.3704	2.9858	-17.7939	0.44803	46.0536	-53.8933	687.102	-64.7831	256.1214	99.2001	814.3382	-0.0592	0.0182	-0.0073	-0.0462	0.0165	0.9585
12.5407	3.2255	29.0186	1.5168	-9.8195	-0.07277	25.6703	-51.5399	713.9248	-67.7699	265.2581	101.2156	841.7774	-0.0592	0.0182	-0.0073	-0.0462	0.0165	0.9585
12.5518	0.22172	12.8161	0.54942	-4.3065	-0.38752	11.5833	-49.3778	737.1474	-70.7101	272.9908	103.239	864.8867	-0.0592	0.0182	-0.0073	-0.0462	0.0165	0.9585
12.5629	-1.33	2.5345	-0.061679	-0.83146	-0.45976	2.6426	-47.5559	756.4418	-73.3139	279.2307	105.0052	883.3691	-0.0592	0.0182	-0.0073	-0.0462	0.0165	0.9585
12.5739	-1.9396	-3.112	-0.38088	1.059	-0.42139	-2.2466	-46.0027	771.5424	-75.4866	283.9282	106.3649	896.9363	-0.0592	0.0182	-0.0073	-0.0462	0.0165	0.9585
12.585	-1.8876	-5.5224	-0.47993	1.8433	-0.33217	-4.3612	-44.7076	782.3675	-76.9185	287.0986	106.9813	905.5416	-0.0592	0.0182	-0.0073	-0.0462	0.0165	0.9585
12.5961	-1.5467	-5.8366	-0.48345	1.9186	-0.21256	-4.6273	-43.537	788.9203	-77.7253	288.7756	106.907	909.2034	-0.0592	0.0182	-0.0073	-0.0462	0.0165	0.9585
12.6071	-1.0356	-5.0154	-0.40072	1.6128	-0.11534	-3.933	-42.3892	791.4029	-77.7918	289.0643	106.0066	908.1677	-0.0592	0.0182	-0.0073	-0.0462	0.0165	0.9585
12.6182	-0.55134	-3.6659	-0.33042	1.1395	-0.011992	-2.7467	-41.143	790.1219	-77.3614	288.0861	104.4915	902.787	-0.0592	0.0182	-0.0073	-0.0462	0.0165	0.9585
12.6293	-0.089386	-2.2426	-0.24312	0.65246	0.065955	-1.5201	-39.711	785.4994	-76.4563	286.0102	102.3683	893.538	-0.0592	0.0182	-0.0073	-0.0462	0.0165	0.9585
12.6404	0.2448	-0.92726	-0.1941	0.21764	0.14345	-0.34532	-38.012	778.1002	-75.209	283.0429	99.7529	881.069	-0.0592	0.0182	-0.0073	-0.0462	0.0165	0.9585
12.6514	0.52599	0.13914	-0.15751	-0.12256	0.2147	0.60313	-35.9768	768.6012	-73.7092	279.4327	96.7277	866.1166	-0.0592	0.0182	-0.0073	-0.0462	0.0165	0.9585
12.6625	0.68263	0.97012	-0.14416	-0.37381	0.2733	1.3902	-33.5795	757.7795	-71.9807	275.4571	93.3292	849.5291	-0.0592	0.0182	-0.0073	-0.0462	0.0165	0.9585
12.6736	0.80842	1.5536	-0.14726	-0.54305	0.33631	1.9469	-30.7795	746.3808	-70.156	271.3791	89.693	832.099	-0.0592	0.0182	-0.0073	-0.0462	0.0165	0.9585
12.6846	0.85041	1.962	-0.15031	-0.65802	0.37595	2.3735	-27.6003	735.1551	-68.2189	267.4623	85.8307	814.614	-0.0592	0.0182	-0.0073	-0.0462	0.0165	0.9585
12.6957	0.88375	2.2074	-0.15715	-0.73116	0.40858	2.6321	-24.0373	724.7648	-66.3274	263.9358	81.9067	797.7541	-0.0592	0.0182	-0.0073	-0.0462	0.0165	0.9585
12.7068	0.86996	2.3446	-0.15052	-0.77672	0.40281	2.81	-20.1334	715.8156	-64.5159	261.0123	77.9731	782.1542	-0.0592	0.0182	-0.0073	-0.0462	0.0165	0.9585
12.7179	0.84481	2.3896	-0.1435	-0.80082	0.38055	2.8779	-15.8789	708.7789	-62.9031	258.8538	74.1445	768.2892	-0.0592	0.0182	-0.0073	-0.0462	0.0165	0.9585
12.7289	0.78627	2.3577	-0.12738	-0.80167	0.32892	2.8555	-11.2419	704.011	-61.541	257.5824	70.4526	756.5202	-0.0592	0.0182	-0.0073	-0.0462	0.0165	0.9585
12.74	0.70465	2.218	-0.095405	-0.76729	0.24736	2.6816	-6.1633	701.7655	-60.445	257.2825	66.8786	747.0796	-0.0592	0.0182	-0.0073	-0.0462	0.0165	0.9585
12.7511	0.5917	1.9189	-0.05262	-0.67781	0.13975	2.2974	-0.67305	702.1973	-59.6789	257.9939	63.4723	740.1454	-0.0592	0.0182	-0.0073	-0.0462	0.0165	0.9585
12.7621	0.43701	1.3951	0.0090145	-0.50547	-0.0034466	1.6292	5.1305	705.2902	-59.2059	259.6921	60.222	735.7581	-0.0592	0.0182	-0.0073	-0.0462	0.0165	0.9585
12.7732	0.2624	0.56595	0.066211	-0.21972	-0.14924	0.57039	11.0226	710.81	-59.0942	262.2593	57.2661	733.7996	-0.0592	0.0182	-0.0073	-0.0462	0.0165	0.9585
12.7843	0.06014	-0.62817	0.11839	0.2058	-0.28782	-0.92142	16.7107	718.2433	-59.3228	265.474	54.6931	733.9018	-0.0592	0.0182	-0.0073	-0.0462	0.0165	0.9585
12.7954	-0.082358	-2.2288	0.13416	0.7811	-0.35327	-2.93	21.8639	726.8101	-59.9111	269.0171	52.6512	735.4409	-0.0592	0.0182	-0.0073	-0.0462	0.0165	0.9585
12.8064	-0.13673	-4.1714	0.094813	1.483	-0.30346	-5.3378	26.2121	735.5934	-60.8123	272.5265	51.2041	737.6302	-0.0592	0.0182	-0.0073	-0.0462	0.0165	0.9585
12.8175	0.073938	-6.2793	-0.02634	2.2395	-0.048336	-7.9641	29.6077	743.6364	-61.9336	275.6351	50.33	739.6047	-0.0592	0.0182	-0.0073	-0.0462	0.0165	0.9585
12.8286	0.62358	-8.1191	-0.27534	2.894	0.49993	-10.2413	32.0241	750.0607	-63.1974	278.0133	49.9738	740.5412	-0.0592	0.0182	-0.0073	-0.0462	0.0165	0.9585
12.8396	1.7517	-9.0268	-0.67331	3.197	1.4482	-11.3875	33.5478	754.1689	-64.4789	279.4116	49.9962	739.757	-0.0592	0.0182	-0.0073	-0.0462	0.0165	0.9585
12.8507	3.5682	-7.9384	-1.2745	2.7601	2.9007	-10.043	34.3499	755.5281	-65.7223	279.6861	50.2868	736.8139	-0.0592	0.0182	-0.0073	-0.0462	0.0165	0.9585
12.8618	6.2809	-3.4728	-2.0578	1.0711	4.9046	-4.5323	34.6881	753.9772	-66.8319	278.8035	50.6684	731.4726	-0.0592	0.0182	-0.0073	-0.0462	0.0165	0.9585
12.8729	9.8577	6.1631	-3.0115	-2.5194	7.4283	7.3983	34.8566	749.5428	-67.7319	276.8039	50.9682	723.6503	-0.0592	0.0182	-0.0073	-0.0462	0.0165	0.9585
12.8839	14.1838	22.8384	-3.9886	-8.6945	10.2407	28.0224	35.1558	742.2878	-68.3094	273.7461	50.9771	713.295	-0.0592	0.0182	-0.0073	-0.0462	0.0165	0.9585
12.895	18.6798	48.2898	-4.7845	-18.0743	12.8659	59.5474	35.8551	732.187	-68.4285	269.6539	50.4759	700.2994	-0.0592	0.0182	-0.0073	-0.0462	0.0165	0.9585
12.9061	22.3499	83.4126	-5.0149	-30.9727	14.4611	103.0854	37.1219	719.017	-67.9499	264.4721	49.2793	684.4141	-0.0592	0.0182	-0.0073	-0.0462	0.0165	0.9585
12.9171	23.3987	127.9402	-4.2662	-47.2533	13.8695	158.4075	39.0223	702.3028	-66.7311	258.0435	47.2353	665.1935	-0.0592	0.0182	-0.0073	-0.0462	0.0165	0.9585
12.9282	20.3983	180.3967	-2.0216	-66.3313	9.9384	223.7415	41.4226	681.3611	-64.6854	250.1221	44.3054	642.0676	-0.0592	0.0182	-0.0073	-0.0462	0.0165	0.9585
12.9393	13.2208	238.5485	2.1855	-87.3214	2.0583	296.3576	44.0935	655.3844	-61.7469	240.4127	40.5118	614.3745	-0.0592	0.0182	-0.0073	-0.0462	0.0165	0.9585
12.9504	2.9627	298.8138	8.5917	-108.8799	-9.661	371.652	46.6758	623.6141	-57.9079	228.6332	35.9748	581.5445	-0.0592	0.0182	-0.0073	-0.0462	0.0165	0.9585
12.9614	-8.8951	356.8165	17.047	-129.4568	-24.3847	443.8963	48.8131	585.4524	-53.2396	214.5674	30.8948	543.1369	-0.0592	0.0182	-0.0073	-0.0462	0.0165	0.9585
12.9725	-20.7	409.9748	26.355	-148.2128	-40.031	509.503	50.0882	540.8178	-47.8402	198.1805	25.5123	499.2286	-0.0592	0.0182	-0.0073	-0.0462	0.0165	0.9585
